<svg fill="#000000" xmlns="http://www.w3.org/2000/svg"  viewBox="0 0 48 48" width="48px" height="48px"><path d="M 9.5 4 C 6.4802259 4 4 6.4802259 4 9.5 L 4 16.5 A 1.50015 1.50015 0 1 0 7 16.5 L 7 9.5 C 7 8.1017741 8.1017741 7 9.5 7 L 16.5 7 A 1.50015 1.50015 0 1 0 16.5 4 L 9.5 4 z M 31.5 4 A 1.50015 1.50015 0 1 0 31.5 7 L 38.5 7 C 39.898226 7 41 8.1017741 41 9.5 L 41 16.5 A 1.50015 1.50015 0 1 0 44 16.5 L 44 9.5 C 44 6.4802259 41.519774 4 38.5 4 L 31.5 4 z M 24 10 C 21.797797 10 19.707833 10.53291 17.867188 11.474609 A 1.50015 1.50015 0 1 0 19.234375 14.144531 C 20.66573 13.412231 22.280203 13 24 13 C 29.803489 13 34.5 17.696511 34.5 23.5 L 34.5 32.5 A 1.50015 1.50015 0 1 0 37.5 32.5 L 37.5 23.5 C 37.5 16.069489 31.430511 10 24 10 z M 14.285156 14.982422 A 1.50015 1.50015 0 0 0 13.041016 15.623047 C 11.444374 17.839231 10.5 20.568927 10.5 23.5 L 10.5 32.5 A 1.50015 1.50015 0 1 0 13.5 32.5 L 13.5 23.5 C 13.5 21.211073 14.231251 19.102769 15.474609 17.376953 A 1.50015 1.50015 0 0 0 14.285156 14.982422 z M 24 16 C 19.877763 16 16.5 19.377763 16.5 23.5 L 16.5 35.5 A 1.50015 1.50015 0 1 0 19.5 35.5 L 19.5 23.5 C 19.5 21.004237 21.504237 19 24 19 C 24.126333 19 24.251035 19.005295 24.373047 19.015625 A 1.50015 1.50015 0 1 0 24.626953 16.027344 C 24.418965 16.009691 24.209667 16 24 16 z M 28.783203 18.46875 A 1.50015 1.50015 0 0 0 27.646484 20.865234 C 28.185656 21.608946 28.5 22.510409 28.5 23.5 L 28.5 35.5 A 1.50015 1.50015 0 1 0 31.5 35.5 L 31.5 23.5 C 31.5 21.865591 30.969047 20.339757 30.074219 19.105469 A 1.50015 1.50015 0 0 0 28.783203 18.46875 z M 23.976562 21.978516 A 1.50015 1.50015 0 0 0 22.5 23.5 L 22.5 26.5 A 1.50015 1.50015 0 1 0 25.5 26.5 L 25.5 23.5 A 1.50015 1.50015 0 0 0 23.976562 21.978516 z M 5.4765625 29.978516 A 1.50015 1.50015 0 0 0 4 31.5 L 4 38.5 C 4 41.519774 6.4802259 44 9.5 44 L 16.5 44 A 1.50015 1.50015 0 1 0 16.5 41 L 9.5 41 C 8.1017741 41 7 39.898226 7 38.5 L 7 31.5 A 1.50015 1.50015 0 0 0 5.4765625 29.978516 z M 23.976562 29.978516 A 1.50015 1.50015 0 0 0 22.5 31.5 L 22.5 37.5 A 1.50015 1.50015 0 1 0 25.5 37.5 L 25.5 31.5 A 1.50015 1.50015 0 0 0 23.976562 29.978516 z M 42.476562 29.978516 A 1.50015 1.50015 0 0 0 41 31.5 L 41 38.5 C 41 39.898226 39.898226 41 38.5 41 L 31.5 41 A 1.50015 1.50015 0 1 0 31.5 44 L 38.5 44 C 41.519774 44 44 41.519774 44 38.5 L 44 31.5 A 1.50015 1.50015 0 0 0 42.476562 29.978516 z"/></svg>