<?xml version="1.0" standalone="no"?>
<!DOCTYPE svg PUBLIC "-//W3C//DTD SVG 20010904//EN"
 "http://www.w3.org/TR/2001/REC-SVG-20010904/DTD/svg10.dtd">
<svg version="1.0" xmlns="http://www.w3.org/2000/svg"
 width="336.000000pt" height="337.000000pt" viewBox="0 0 336.000000 337.000000"
 preserveAspectRatio="xMidYMid meet">

<g transform="translate(0.000000,337.000000) scale(0.100000,-0.100000)"
fill="#000000" stroke="none">
<path d="M2327 2762 c-21 -23 -22 -51 -1 -80 12 -17 25 -22 60 -22 l44 0 0
-650 0 -650 -40 0 c-91 0 -111 -104 -24 -126 37 -10 110 5 138 27 55 43 56 53
56 384 l0 305 45 0 c72 0 105 47 69 98 -12 18 -25 22 -65 22 l-49 0 0 305 c0
332 -1 341 -56 384 -36 29 -152 30 -177 3z"/>
<path d="M919 2747 c-54 -36 -58 -60 -58 -389 l-1 -298 -45 0 c-57 0 -90 -28
-80 -68 9 -37 32 -52 81 -52 l43 0 3 -314 c3 -300 4 -316 24 -343 28 -39 80
-63 137 -63 56 0 87 25 87 69 0 38 -32 61 -82 61 l-38 0 0 650 0 650 44 0 c51
0 76 19 76 56 0 53 -15 64 -89 64 -54 0 -75 -5 -102 -23z"/>
<path d="M1543 1909 c-47 -23 -83 -83 -83 -138 0 -43 27 -98 56 -118 22 -14
24 -23 24 -91 l0 -75 -25 27 c-32 34 -77 35 -110 1 -14 -13 -25 -33 -25 -45 0
-20 95 -260 130 -330 10 -20 39 -55 63 -77 139 -128 365 -75 444 104 13 29 17
68 18 166 0 123 -1 129 -24 148 -13 10 -37 19 -53 19 -20 0 -37 9 -55 30 -17
21 -34 30 -55 30 -20 0 -39 10 -58 30 -22 23 -37 30 -66 30 l-38 0 31 33 c43
45 53 69 53 124 0 120 -115 187 -227 132z m149 -57 c33 -31 44 -77 27 -117
l-12 -30 -8 55 c-9 64 -33 90 -85 90 -52 0 -74 -28 -74 -97 -1 -53 -2 -56 -15
-39 -20 26 -19 96 1 125 38 54 116 60 166 13z m-53 -55 c6 -9 12 -84 13 -203
3 -181 4 -189 23 -189 18 0 20 8 23 77 3 79 15 104 45 92 13 -5 17 -26 19
-107 3 -97 4 -102 25 -105 21 -3 22 1 25 69 2 57 7 74 21 83 32 19 47 -16 47
-111 0 -76 2 -83 20 -83 17 0 20 7 20 53 0 64 19 98 47 81 15 -9 18 -27 21
-110 4 -120 -9 -170 -56 -225 -46 -54 -101 -79 -176 -79 -71 0 -131 26 -173
74 -27 30 -153 318 -153 349 0 20 24 39 42 32 8 -3 34 -54 59 -113 l44 -107 5
255 c3 140 9 261 13 268 11 16 32 15 46 -1z"/>
</g>
</svg>
